<svg width="99" height="99" viewBox="0 0 99 99" fill="none" xmlns="http://www.w3.org/2000/svg">
<g filter="url(#filter0_d_2_243)">
<circle cx="49.5" cy="35.5" r="22.5" fill="#DCF0FF" fill-opacity="0.63" shape-rendering="crispEdges"/>
</g>
<path fill-rule="evenodd" clip-rule="evenodd" d="M39.0001 35.9554V36.0446C39.0107 38.7301 39.9837 41.1885 41.592 43.0931C42.0572 43.6439 42.5756 44.1485 43.1391 44.5987C43.7064 45.0519 44.3194 45.4501 44.9703 45.7853C45.9028 46.2656 46.9128 46.6165 47.9767 46.8143C48.5915 46.9286 49.2243 46.9918 49.8706 46.9993C49.9136 46.9998 49.9568 47 50 47C53.6895 47 56.9547 45.1836 58.9502 42.3962C59.3681 41.8125 59.7304 41.1861 60.0291 40.525C60.6528 39.1448 61 37.613 61 36C61 32.7398 59.5816 29.8108 57.3284 27.7965C56.8065 27.33 56.2398 26.9125 55.6355 26.5513C53.9873 25.5661 52.0598 25 50 25C49.888 25 49.7765 25.0017 49.6654 25.005C47.9985 25.0548 46.4248 25.4754 45.024 26.1872C44.0709 26.6714 43.1978 27.2905 42.4299 28.0191C41.7167 28.6959 41.0941 29.4672 40.5822 30.313C40.2211 30.9097 39.9152 31.5434 39.6714 32.2072C39.2419 33.3763 39.0053 34.6386 39.0001 35.9554ZM58.4813 39.0186C58.8171 38.075 59 37.0588 59 36C59 33.5427 58.0151 31.3153 56.4186 29.6912C55.5976 31.054 54.5149 32.1842 53.2668 33.0469C53.7352 34.2626 53.9886 35.5603 54.0045 36.8778C54.7693 37.0484 55.5275 37.304 56.267 37.6488C57.0741 38.0252 57.8141 38.487 58.4813 39.0186ZM53.8414 38.8954C54.3752 39.0321 54.9041 39.22 55.4217 39.4614C56.2221 39.8346 56.9417 40.3105 57.5723 40.8661C56.0689 43.2008 53.5152 44.7953 50.5789 44.9817C51.5517 44.0585 52.3709 42.9405 52.9721 41.6514C53.3909 40.7531 53.6781 39.8272 53.8414 38.8954ZM51.9965 36.6219C51.9583 35.7382 51.7899 34.8684 51.5014 34.0408C48.6888 35.2998 45.3659 35.3765 42.3539 33.972C42.0126 33.8128 41.6833 33.6384 41.3664 33.4498C41.1279 34.2584 41 35.1142 41 36C41 37.9462 41.6177 39.748 42.6678 41.2203C44.8304 38.1875 48.3686 36.4987 51.9965 36.6219ZM44.0471 42.7502C45.7726 40.059 48.7714 38.5382 51.8586 38.6191C51.7231 39.3586 51.492 40.093 51.1595 40.8062C50.3777 42.4825 49.1454 43.805 47.6739 44.6965C46.3105 44.3328 45.0745 43.6569 44.0471 42.7502ZM50 27C51.7846 27 53.448 27.5195 54.8471 28.4154C54.2113 29.5484 53.3593 30.4961 52.3681 31.2306C51.3472 29.5707 49.8753 28.1643 48.027 27.2169C48.662 27.0749 49.3222 27 50 27ZM46.8063 28.8458C48.4462 29.6106 49.7475 30.8066 50.638 32.2359C48.3465 33.2465 45.6473 33.301 43.1991 32.1594C42.8339 31.989 42.4855 31.7974 42.1546 31.5865C42.9137 30.2401 44.0094 29.1087 45.3274 28.3065C45.8268 28.4406 46.3214 28.6197 46.8063 28.8458Z" fill="#7C76BB"/>
<defs>
<filter id="filter0_d_2_243" x="0" y="0" width="99" height="99" filterUnits="userSpaceOnUse" color-interpolation-filters="sRGB">
<feFlood flood-opacity="0" result="BackgroundImageFix"/>
<feColorMatrix in="SourceAlpha" type="matrix" values="0 0 0 0 0 0 0 0 0 0 0 0 0 0 0 0 0 0 127 0" result="hardAlpha"/>
<feMorphology radius="10" operator="erode" in="SourceAlpha" result="effect1_dropShadow_2_243"/>
<feOffset dy="14"/>
<feGaussianBlur stdDeviation="18.5"/>
<feComposite in2="hardAlpha" operator="out"/>
<feColorMatrix type="matrix" values="0 0 0 0 0.7 0 0 0 0 0.7 0 0 0 0 0.7 0 0 0 0.17 0"/>
<feBlend mode="normal" in2="BackgroundImageFix" result="effect1_dropShadow_2_243"/>
<feBlend mode="normal" in="SourceGraphic" in2="effect1_dropShadow_2_243" result="shape"/>
</filter>
</defs>
</svg>
