<svg width="26" height="27" viewBox="0 0 26 27" fill="none" xmlns="http://www.w3.org/2000/svg">
<path d="M19.1284 18.5453L14.5318 23.1418C14.3308 23.3431 14.0921 23.5027 13.8294 23.6116C13.5666 23.7205 13.285 23.7766 13.0005 23.7766C12.7161 23.7766 12.4345 23.7205 12.1717 23.6116C11.909 23.5027 11.6703 23.3431 11.4693 23.1418L6.87159 18.5453C5.65958 17.3332 4.8342 15.7889 4.49983 14.1078C4.16547 12.4266 4.33712 10.6841 4.99309 9.10046C5.64907 7.51686 6.75989 6.16334 8.18511 5.21105C9.61033 4.25877 11.2859 3.75049 13 3.75049C14.7141 3.75049 16.3897 4.25877 17.8149 5.21105C19.2401 6.16334 20.3509 7.51686 21.0069 9.10046C21.6629 10.6841 21.8345 12.4266 21.5002 14.1078C21.1658 15.7889 20.3404 17.3332 19.1284 18.5453V18.5453Z" stroke="#7C76BB" stroke-width="2" stroke-linecap="round" stroke-linejoin="round"/>
<path d="M16.25 12.4165C16.25 13.2785 15.9076 14.1051 15.2981 14.7146C14.6886 15.3241 13.862 15.6665 13 15.6665C12.138 15.6665 11.3114 15.3241 10.7019 14.7146C10.0924 14.1051 9.75 13.2785 9.75 12.4165C9.75 11.5545 10.0924 10.7279 10.7019 10.1184C11.3114 9.50891 12.138 9.1665 13 9.1665C13.862 9.1665 14.6886 9.50891 15.2981 10.1184C15.9076 10.7279 16.25 11.5545 16.25 12.4165V12.4165Z" stroke="#7C76BB" stroke-width="2" stroke-linecap="round" stroke-linejoin="round"/>
</svg>
