<svg width="26" height="26" viewBox="0 0 26 26" fill="none" xmlns="http://www.w3.org/2000/svg">
<path d="M19.1284 18.0453L14.5318 22.6418C14.3308 22.8431 14.0921 23.0027 13.8294 23.1116C13.5666 23.2205 13.285 23.2766 13.0005 23.2766C12.7161 23.2766 12.4345 23.2205 12.1717 23.1116C11.909 23.0027 11.6703 22.8431 11.4693 22.6418L6.87159 18.0453C5.65958 16.8332 4.8342 15.2889 4.49983 13.6078C4.16547 11.9266 4.33712 10.1841 4.99309 8.60046C5.64907 7.01686 6.75989 5.66334 8.18511 4.71105C9.61033 3.75877 11.2859 3.25049 13 3.25049C14.7141 3.25049 16.3897 3.75877 17.8149 4.71105C19.2401 5.66334 20.3509 7.01686 21.0069 8.60046C21.6629 10.1841 21.8345 11.9266 21.5002 13.6078C21.1658 15.2889 20.3404 16.8332 19.1284 18.0453V18.0453Z" stroke="#7C76BB" stroke-width="2" stroke-linecap="round" stroke-linejoin="round"/>
<path d="M16.25 11.9165C16.25 12.7785 15.9076 13.6051 15.2981 14.2146C14.6886 14.8241 13.862 15.1665 13 15.1665C12.138 15.1665 11.3114 14.8241 10.7019 14.2146C10.0924 13.6051 9.75 12.7785 9.75 11.9165C9.75 11.0545 10.0924 10.2279 10.7019 9.61841C11.3114 9.00891 12.138 8.6665 13 8.6665C13.862 8.6665 14.6886 9.00891 15.2981 9.61841C15.9076 10.2279 16.25 11.0545 16.25 11.9165V11.9165Z" stroke="#7C76BB" stroke-width="2" stroke-linecap="round" stroke-linejoin="round"/>
</svg>
