<svg width="99" height="99" viewBox="0 0 99 99" fill="none" xmlns="http://www.w3.org/2000/svg">
<g filter="url(#filter0_d_2_247)">
<circle cx="49.5" cy="35.5" r="22.5" fill="#DCF0FF" fill-opacity="0.63" shape-rendering="crispEdges"/>
</g>
<path fill-rule="evenodd" clip-rule="evenodd" d="M50 31C47.2386 31 45 33.2386 45 36C45 38.7614 47.2386 41 50 41C52.7614 41 55 38.7614 55 36C55 33.2386 52.7614 31 50 31ZM47 36C47 37.6569 48.3431 39 50 39C51.6569 39 53 37.6569 53 36C53 34.3431 51.6569 33 50 33C48.3431 33 47 34.3431 47 36Z" fill="#7C76BB"/>
<path d="M56 29C55.4477 29 55 29.4477 55 30C55 30.5523 55.4477 31 56 31C56.5523 31 57 30.5523 57 30C57 29.4477 56.5523 29 56 29Z" fill="#7C76BB"/>
<path fill-rule="evenodd" clip-rule="evenodd" d="M43 25C40.7909 25 39 26.7909 39 29V43C39 45.2091 40.7909 47 43 47H57C59.2091 47 61 45.2091 61 43V29C61 26.7909 59.2091 25 57 25H43ZM57 27H43C41.8954 27 41 27.8954 41 29V43C41 44.1046 41.8954 45 43 45H57C58.1046 45 59 44.1046 59 43V29C59 27.8954 58.1046 27 57 27Z" fill="#7C76BB"/>
<defs>
<filter id="filter0_d_2_247" x="0" y="0" width="99" height="99" filterUnits="userSpaceOnUse" color-interpolation-filters="sRGB">
<feFlood flood-opacity="0" result="BackgroundImageFix"/>
<feColorMatrix in="SourceAlpha" type="matrix" values="0 0 0 0 0 0 0 0 0 0 0 0 0 0 0 0 0 0 127 0" result="hardAlpha"/>
<feMorphology radius="10" operator="erode" in="SourceAlpha" result="effect1_dropShadow_2_247"/>
<feOffset dy="14"/>
<feGaussianBlur stdDeviation="18.5"/>
<feComposite in2="hardAlpha" operator="out"/>
<feColorMatrix type="matrix" values="0 0 0 0 0.7 0 0 0 0 0.7 0 0 0 0 0.7 0 0 0 0.17 0"/>
<feBlend mode="normal" in2="BackgroundImageFix" result="effect1_dropShadow_2_247"/>
<feBlend mode="normal" in="SourceGraphic" in2="effect1_dropShadow_2_247" result="shape"/>
</filter>
</defs>
</svg>
