<svg width="96" height="96" viewBox="0 0 96 96" fill="none" xmlns="http://www.w3.org/2000/svg">
<g clip-path="url(#clip0_2_168)">
<path d="M30.512 43.939C28.164 43.263 25.816 42.92 23.532 42.92C20.005 42.92 17.062 43.726 14.78 44.713C16.98 36.659 22.265 22.762 32.793 21.197C33.768 21.052 34.567 20.347 34.833 19.398L37.134 11.168C37.328 10.472 37.213 9.72703 36.816 9.12303C36.419 8.51903 35.781 8.11603 35.066 8.01803C34.289 7.91203 33.497 7.85803 32.712 7.85803C20.075 7.85803 7.55999 21.048 2.27899 39.934C-0.821006 51.014 -1.73001 67.672 5.90599 78.157C10.179 84.024 16.413 87.157 24.435 87.47C24.468 87.471 24.5 87.472 24.533 87.472C34.431 87.472 43.208 80.806 45.878 71.263C47.473 65.558 46.752 59.575 43.846 54.412C40.971 49.307 36.236 45.586 30.512 43.939Z" fill="#7C76BB" fill-opacity="0.31"/>
<path d="M92.471 54.413C89.596 49.307 84.861 45.586 79.137 43.939C76.789 43.263 74.441 42.92 72.158 42.92C68.631 42.92 65.687 43.726 63.405 44.713C65.605 36.659 70.89 22.762 81.419 21.197C82.394 21.052 83.192 20.347 83.459 19.398L85.76 11.168C85.954 10.472 85.839 9.72703 85.442 9.12303C85.046 8.51903 84.408 8.11603 83.692 8.01803C82.916 7.91203 82.124 7.85803 81.338 7.85803C68.701 7.85803 56.186 21.048 50.904 39.934C47.805 51.014 46.896 67.672 54.533 78.159C58.805 84.025 65.04 87.159 73.061 87.471C73.094 87.472 73.126 87.473 73.16 87.473C83.057 87.473 91.835 80.807 94.505 71.264C96.098 65.559 95.376 59.575 92.471 54.413Z" fill="#7C76BB" fill-opacity="0.31"/>
</g>
<defs>
<clipPath id="clip0_2_168">
<rect width="95.333" height="95.332" fill="white"/>
</clipPath>
</defs>
</svg>
