<svg width="96" height="96" viewBox="0 0 96 96" fill="none" xmlns="http://www.w3.org/2000/svg">
<g clip-path="url(#clip0_2_173)">
<path d="M64.821 43.9389C67.169 43.2629 69.517 42.9199 71.801 42.9199C75.328 42.9199 78.271 43.7259 80.553 44.7129C78.353 36.6589 73.068 22.7619 62.54 21.1969C61.565 21.0519 60.766 20.3469 60.5 19.3979L58.199 11.1679C58.005 10.4719 58.12 9.72691 58.517 9.12291C58.914 8.51891 59.552 8.11591 60.267 8.01791C61.044 7.91191 61.836 7.85791 62.621 7.85791C75.258 7.85791 87.773 21.0479 93.054 39.9339C96.154 51.0139 97.063 67.6719 89.427 78.1569C85.154 84.0239 78.92 87.1569 70.898 87.4699C70.865 87.4709 70.833 87.4719 70.8 87.4719C60.902 87.4719 52.125 80.8059 49.455 71.2629C47.86 65.5579 48.581 59.5749 51.487 54.4119C54.362 49.3069 59.097 45.5859 64.821 43.9389Z" fill="#7C76BB"/>
<path d="M2.86197 54.4129C5.73697 49.3069 10.472 45.5859 16.196 43.9389C18.544 43.2629 20.892 42.9199 23.175 42.9199C26.702 42.9199 29.646 43.7259 31.928 44.7129C29.728 36.6589 24.443 22.7619 13.914 21.1969C12.939 21.0519 12.141 20.3469 11.874 19.3979L9.57297 11.1679C9.37897 10.4719 9.49397 9.72691 9.89097 9.12291C10.287 8.51891 10.925 8.11591 11.641 8.01791C12.417 7.91191 13.209 7.85791 13.995 7.85791C26.632 7.85791 39.147 21.0479 44.429 39.9339C47.528 51.0139 48.437 67.6719 40.8 78.1589C36.528 84.0249 30.293 87.1589 22.272 87.4709C22.239 87.4719 22.207 87.4729 22.173 87.4729C12.276 87.4729 3.49797 80.8069 0.827972 71.2639C-0.765026 65.5589 -0.0430298 59.5749 2.86197 54.4129Z" fill="#7C76BB"/>
</g>
<defs>
<clipPath id="clip0_2_173">
<rect width="95.333" height="95.332" fill="white" transform="matrix(-1 0 0 1 95.333 0)"/>
</clipPath>
</defs>
</svg>
